<svg width="24" height="24" fill="none" xmlns="http://www.w3.org/2000/svg"><path fill-rule="evenodd" clip-rule="evenodd" d="M2.09 5.2h19.82c.602 0 1.09-.492 1.09-1.1 0-.608-.488-1.1-1.09-1.1H2.09C1.488 3 1 3.492 1 4.1c0 .608.488 1.1 1.09 1.1zm0 7.748h19.82c.602 0 1.09-.492 1.09-1.1 0-.607-.488-1.1-1.09-1.1H2.09c-.602 0-1.09.493-1.09 1.1 0 .608.488 1.1 1.09 1.1zm19.82 7.749H2.09c-.602 0-1.09-.493-1.09-1.1 0-.608.488-1.1 1.09-1.1h19.82c.602 0 1.09.492 1.09 1.1 0 .607-.488 1.1-1.09 1.1z" fill="#3A4C66"/></svg>